<svg width="347" height="30" viewBox="0 0 347 30" fill="none" xmlns="http://www.w3.org/2000/svg">
<path d="M134.617 0C135.037 0.0194771 135.476 0.0584314 135.895 0.0779086C138.531 0.214249 141.127 0.564837 143.664 1.34392C144.742 1.67503 145.8 2.08405 146.739 2.7268C147.278 3.07739 147.757 3.50589 148.097 4.07072C148.556 4.86929 148.616 5.68733 148.197 6.52484C147.618 7.63504 146.759 8.49204 145.76 9.25165C144.263 10.4008 142.585 11.2383 140.868 11.9784C140.129 12.2901 139.39 12.5433 138.651 12.8354C138.432 12.9133 138.312 13.1081 138.392 13.3418C138.432 13.4782 138.531 13.595 138.611 13.6924C139.31 14.5105 139.75 15.4064 139.67 16.4971C139.61 17.2373 139.31 17.88 138.931 18.5228C138.511 19.2629 137.832 19.7498 137.153 20.2368C135.476 21.4638 133.619 22.3403 131.662 23.0609C130.523 23.47 129.345 23.8205 128.187 24.1906C128.127 24.2101 128.067 24.2296 128.007 24.288C128.187 24.288 128.347 24.2685 128.526 24.2685C130.683 24.0738 132.84 23.8206 134.977 23.431C137.992 22.9051 140.968 22.1845 143.883 21.308C144.622 21.0938 145.241 20.6653 145.701 20.0615C147.019 18.3475 148.656 16.9841 150.433 15.757C152.95 14.0625 155.606 12.6212 158.401 11.4331C159.6 10.9267 160.858 10.615 162.176 10.6345C164.253 10.654 165.87 12.1148 166.01 14.1404C166.09 15.1727 165.391 15.8934 164.273 15.9518C163.953 15.9713 163.634 15.9518 163.314 15.9128C162.096 15.757 160.898 15.9323 159.739 16.2439C157.203 16.9256 154.807 17.88 152.67 19.4187C151.871 19.9836 151.132 20.6068 150.533 21.3859C150.234 21.7949 149.934 22.2039 149.854 22.7104C149.774 23.2362 149.954 23.6647 150.413 23.9569C150.953 24.3075 151.592 24.3854 152.211 24.4243C155.007 24.5607 157.663 23.9764 160.219 22.9051C162.256 22.0676 164.113 20.899 165.73 19.4187C166.17 19.0097 166.549 18.5422 166.909 18.0748C167.488 17.3347 167.508 16.4777 167.368 15.6012C167.288 15.1727 167.128 14.7637 167.048 14.3352C166.929 13.7119 167.168 13.2834 167.767 13.0497C168.326 12.8354 168.886 12.7965 169.485 12.8354C171.262 12.9718 173.039 13.1276 174.817 13.225C176.235 13.3029 177.652 13.3029 179.07 13.0886C180.109 12.9328 181.107 12.6601 182.046 12.1927C182.605 11.92 183.224 11.8616 183.843 12.0758C184.462 12.2901 184.682 12.816 184.742 13.4003C184.782 13.7314 184.762 14.082 184.762 14.4326C184.762 14.6273 184.742 14.8221 184.762 15.0169C184.782 15.2896 184.921 15.4064 185.201 15.348C185.481 15.2896 185.78 15.2117 186.04 15.0948C188.716 14.0625 191.392 13.0107 194.048 11.9784C194.926 11.6279 195.825 11.6473 196.664 12.0758C197.782 12.6212 198.801 13.2834 199.5 14.3352C199.579 14.4715 199.659 14.6079 199.719 14.7442C199.899 15.2506 199.639 15.6596 199.08 15.7181C198.841 15.7375 198.601 15.7375 198.361 15.6986C197.542 15.5233 196.744 15.5622 195.945 15.7181C191.971 16.5361 188.197 17.8605 184.582 19.6719C184.103 19.9056 183.943 20.2368 183.903 20.7042C183.783 22.0871 184.402 23.0804 185.68 23.6647C186.579 24.0738 187.557 24.2101 188.536 24.3075C190.613 24.4828 192.63 24.249 194.587 23.5284C195.825 23.0609 195.825 23.0804 196.744 21.9118C197.103 21.4443 197.522 21.1132 198.122 21.0938C198.421 21.0743 198.741 21.1132 199 21.2106C201.077 22.0092 203.194 22.6324 205.371 23.0415C207.168 23.3921 209.005 23.5868 210.842 23.6258C211.442 23.6453 212.041 23.5479 212.64 23.47C212.879 23.431 213.119 23.2947 213.319 23.1583C213.678 22.9051 213.718 22.5156 213.439 22.165C213.319 22.0092 213.159 21.8728 212.979 21.756C211.302 20.5094 209.445 19.5745 207.527 18.7175C206.689 18.3475 205.85 17.9774 205.011 17.5879C204.492 17.3541 203.993 17.062 203.593 16.653C203.034 16.1076 203.034 15.5038 203.553 14.939C204.093 14.3547 204.792 13.9651 205.51 13.6535C208.606 12.329 211.821 11.511 215.176 11.0825C216.873 10.8682 218.591 10.7319 220.308 10.7903C221.646 10.8488 222.944 11.1409 224.162 11.6863C224.422 11.8032 224.662 11.9979 224.861 12.1927C225.201 12.5433 225.241 12.9913 224.981 13.3808C224.282 14.4326 223.384 15.309 222.185 15.8154C221.906 15.9323 221.566 15.9323 221.247 15.9323C220.947 15.9323 220.708 15.7375 220.568 15.4843C220.528 15.4259 220.508 15.348 220.528 15.2896C220.628 15.0558 220.488 14.9195 220.308 14.8805C219.969 14.8026 219.609 14.7247 219.25 14.6858C215.995 14.3936 212.819 14.7442 209.684 15.6207C209.365 15.7181 209.045 15.8544 208.746 16.0297C208.386 16.2634 208.386 16.5751 208.746 16.8283C208.925 16.9451 209.125 17.0425 209.325 17.1204C212.42 18.328 215.455 19.6914 218.391 21.269C218.97 21.5807 219.35 22.0092 219.41 22.6714C219.41 22.7104 219.43 22.7298 219.43 22.7688C220.128 22.6714 220.807 22.4766 221.466 22.2429C223.423 21.5028 225.201 20.4121 226.898 19.2239C229.375 17.471 231.671 15.4843 233.908 13.4782C235.745 11.8226 237.622 10.206 239.459 8.56994C239.539 8.49204 239.619 8.4336 239.759 8.29726C239.499 8.31674 239.32 8.31674 239.14 8.33622C237.203 8.4336 235.286 8.6089 233.388 8.99844C232.17 9.25165 230.992 9.58276 229.874 10.1281C229.614 10.245 229.295 10.3034 228.995 10.2645C228.496 10.2255 228.296 9.81648 228.556 9.40746C228.815 8.99844 229.075 8.58942 229.414 8.25831C230.014 7.65452 230.653 7.0702 231.292 6.54432C231.931 6.01844 232.729 5.80419 233.548 5.72628C235.445 5.55099 237.362 5.39517 239.28 5.25883C240.518 5.16144 241.756 5.10301 243.014 5.0251C243.114 5.0251 243.214 4.9472 243.274 4.88876C243.813 4.40184 244.352 3.91491 244.891 3.42798C245.41 2.92157 246.069 2.70732 246.768 2.68785C248.106 2.66837 249.444 2.66837 250.802 2.66837C250.962 2.66837 251.122 2.66837 251.321 2.66837C250.603 3.35007 249.884 4.03177 249.185 4.71347C249.205 4.73295 249.225 4.7719 249.245 4.79138C251.122 4.79138 253.019 4.79138 254.956 4.79138C254.636 5.12249 254.357 5.43412 254.057 5.72628C253.698 6.09635 253.338 6.48589 252.979 6.85596C252.42 7.45975 251.701 7.73243 250.882 7.77138C249.185 7.84929 247.507 7.9272 245.81 8.00511C245.71 8.00511 245.61 8.08302 245.53 8.14145C241.936 11.3552 238.341 14.5689 234.746 17.7826C233.648 18.776 232.53 19.7304 231.451 20.7432C231.192 20.9964 230.972 21.3275 230.832 21.6586C230.633 22.0676 230.772 22.4377 231.132 22.7104C231.491 22.983 231.911 23.1194 232.35 23.2168C233.648 23.5089 234.986 23.5089 236.304 23.431C238.081 23.3336 239.819 23.0415 241.536 22.613C241.716 22.574 241.796 22.4961 241.796 22.3013C241.836 21.0743 242.275 19.9836 242.954 18.9707C243.913 17.5294 245.191 16.3998 246.589 15.3869C249.045 13.6145 251.641 12.0953 254.537 11.102C256.134 10.5566 257.772 10.206 259.469 10.206C260.368 10.206 261.247 10.2839 262.125 10.5566C262.265 10.5956 262.405 10.654 262.525 10.693C263.603 11.1409 264.002 11.959 263.643 13.0497C263.443 13.7119 263.104 14.3157 262.664 14.8416C261.346 16.4192 259.749 17.7047 258.031 18.8734C255.635 20.49 253.079 21.7755 250.403 22.8662C250.323 22.9051 250.263 22.9246 250.103 22.983C250.403 23.1389 250.643 23.2752 250.902 23.3726C251.701 23.6842 252.54 23.7621 253.398 23.8011C255.755 23.879 258.071 23.5284 260.288 22.7298C262.405 21.9507 264.302 20.8211 265.88 19.2629C268.256 16.9256 270.612 14.5884 272.969 12.2316C273.428 11.7642 273.887 11.2967 274.367 10.8488C274.447 10.7709 274.586 10.7124 274.686 10.7124C275.465 10.6735 276.224 10.6735 277.003 10.654C278.021 10.6345 279.04 10.615 280.058 10.5956C280.118 10.5956 280.158 10.5956 280.278 10.5956C279.759 11.1604 279.259 11.6863 278.76 12.2316L278.78 12.2511C278.94 12.1732 279.08 12.1148 279.239 12.0369C281.915 10.8293 284.711 10.1865 287.647 10.0892C289.145 10.0502 290.642 10.1476 292.1 10.5371C292.499 10.654 292.899 10.8293 293.338 11.0046C292.859 11.5305 292.42 11.9979 292 12.4849C291.181 13.4587 290.123 13.9846 288.885 14.2183C288.166 14.3547 287.447 14.2962 286.748 14.2183C283.673 13.9067 280.757 14.3741 277.981 15.7375C275.565 16.9256 273.368 18.4059 271.331 20.1199C269.874 21.3664 268.476 22.6714 267.098 23.9764C266.539 24.5023 266.019 25.0671 265.34 25.4956C264.442 26.0604 263.443 26.3526 262.365 26.3721C261.326 26.3915 260.288 26.411 259.25 26.4305C259.19 26.4305 259.11 26.4305 258.97 26.4305C259.549 25.9046 260.088 25.4372 260.667 24.9307C260.548 24.9697 260.508 24.9697 260.448 24.9892C258.171 25.8657 255.815 26.4305 253.398 26.7226C251.841 26.8979 250.303 26.9759 248.745 26.8006C247.248 26.6253 245.79 26.3136 244.452 25.6124C244.152 25.4566 243.873 25.2424 243.593 25.0281C243.473 24.9502 243.393 24.9307 243.274 24.9697C241.656 25.4761 240.018 25.8657 238.341 26.0799C236.943 26.2552 235.545 26.3721 234.147 26.4694C233.189 26.5279 232.21 26.5279 231.252 26.5279C230.233 26.5084 229.235 26.3721 228.256 26.0409C226.878 25.5735 225.86 24.7555 225.68 23.2168C225.381 23.3726 225.081 23.5284 224.801 23.6647C222.066 25.0476 219.15 25.9436 216.114 26.45C213.918 26.82 211.701 26.9758 209.484 26.9564C207.607 26.9369 205.71 26.82 203.853 26.5084C202.295 26.2552 200.738 25.9825 199.2 25.6904C198.661 25.593 198.122 25.3982 197.582 25.2619C197.443 25.2229 197.283 25.2229 197.163 25.2619C194.088 26.3526 190.912 26.9564 187.637 26.8395C185.001 26.7421 182.585 25.963 180.568 24.249C180.029 23.7816 179.57 23.2362 179.23 22.5935C177.912 23.2752 176.694 24.0348 175.775 25.184C175.715 25.2619 175.675 25.3787 175.655 25.4761C175.556 26.1189 175.176 26.4694 174.537 26.6253C173.519 26.8785 172.58 26.7421 171.701 26.1968C171.542 26.0994 171.402 25.963 171.282 25.8267C170.923 25.3787 171.062 24.7555 171.622 24.3464C172.76 23.4894 173.878 22.6519 175.036 21.8144C176.075 21.0743 177.113 20.3536 178.172 19.6135C178.311 19.5161 178.351 19.4382 178.331 19.2434C178.212 18.4838 178.311 17.7242 178.431 16.9646C178.471 16.653 178.531 16.3413 178.591 15.9907C176.015 16.4971 173.479 16.0881 170.943 15.6596C170.863 16.0881 170.803 16.4971 170.703 16.9062C170.303 18.5033 169.425 19.8472 168.307 21.0548C166.669 22.8272 164.672 24.1517 162.495 25.2229C160.219 26.3526 157.862 27.2096 155.366 27.716C153.728 28.0471 152.071 28.1055 150.413 28.0666C149.375 28.0471 148.317 27.9887 147.318 27.6575C146.18 27.2875 145.221 26.6837 144.622 25.6319C144.462 25.3398 144.343 25.0281 144.203 24.7165C143.783 24.7944 143.324 24.8918 142.885 24.9697C140.009 25.4566 137.153 25.9825 134.278 26.45C132.421 26.7421 130.543 26.9759 128.686 27.1901C126.649 27.4043 124.612 27.5796 122.555 27.716C120.399 27.8523 118.222 27.9887 116.045 28.0276C112.371 28.1055 108.696 28.1055 105.022 28.125C103.225 28.125 101.447 28.1055 99.6499 28.0276C98.0523 27.9692 96.4547 27.8523 94.8771 27.7355C93.4193 27.6381 91.9415 27.5407 90.4837 27.4238C88.9061 27.307 87.3085 27.1706 85.7309 27.0148C84.2132 26.8785 82.7154 26.7032 81.2177 26.5279C80.319 26.4305 79.4404 26.2747 78.4818 26.1578C78.7813 25.9046 79.021 25.6709 79.2806 25.4566C80.2991 24.6191 81.4174 23.9958 82.7354 23.7426C83.5142 23.6063 84.2731 23.6842 85.0519 23.7426C86.7094 23.84 88.3469 23.9569 90.0044 24.0543C91.7418 24.1517 93.4592 24.2685 95.1966 24.327C97.593 24.3854 99.9894 24.4438 102.386 24.4049C105.222 24.3854 108.057 24.2101 110.893 23.879C114.627 23.431 118.322 22.8662 121.956 21.9897C123.714 21.5612 125.431 21.0743 127.069 20.3147C128.207 19.7888 129.145 19.0486 129.944 18.1137C130.244 17.7632 130.503 17.3736 130.503 16.8867C130.503 16.4582 130.284 16.1855 129.944 15.9518C129.385 15.5622 128.726 15.3869 128.047 15.2701C126.25 14.939 124.433 14.8611 122.595 14.939C119.32 15.0753 116.065 15.348 112.83 15.796C109.815 16.2245 106.819 16.8088 103.864 17.5294C103.744 17.5489 103.624 17.6268 103.524 17.6853C102.106 18.776 100.708 19.8667 99.2905 20.9379C98.5715 21.4833 97.8526 22.0092 96.9939 22.3208C96.3349 22.574 95.636 22.574 94.937 22.5935C94.0583 22.5935 93.1996 22.5351 92.321 22.5156C92.301 22.5156 92.281 22.4961 92.2211 22.4766C92.5606 22.165 92.8801 21.8728 93.2196 21.5807C96.3948 18.7565 99.61 15.9713 102.945 13.3418C105.741 11.1409 108.576 9.01792 111.392 6.85596C111.472 6.79752 111.592 6.75857 111.692 6.73909C114.188 6.50537 116.704 6.27164 119.2 6.05739C119.3 6.05739 119.38 6.03792 119.5 6.09635C116.165 8.41413 112.83 10.7514 109.475 13.0692C109.475 13.0886 109.495 13.1081 109.495 13.1081C109.934 13.0497 110.394 12.9913 110.833 12.9523C112.75 12.7381 114.647 12.5043 116.564 12.3096C118.302 12.1343 120.039 11.9979 121.757 11.8616C122.915 11.7642 124.073 11.7447 125.211 11.6473C128.806 11.3552 132.341 10.7709 135.676 9.36851C136.634 8.95949 137.593 8.53099 138.292 7.71295C138.551 7.42079 138.791 7.12864 138.971 6.79752C139.27 6.25216 139.17 5.72628 138.671 5.33674C138.392 5.12249 138.052 4.92772 137.693 4.79138C136.754 4.42131 135.756 4.28497 134.757 4.12916C132.161 3.73961 129.565 3.6617 126.949 3.72014C124.592 3.77857 122.236 3.95386 119.879 4.20706C118.282 4.38236 116.684 4.53818 115.107 4.73295C111.033 5.29778 106.899 6.03792 102.865 7.20654C102.765 7.22602 102.665 7.26498 102.566 7.30393C102.086 7.44027 101.767 7.12864 101.867 6.66118C101.907 6.44694 102.006 6.25216 102.106 6.05739C102.426 5.49256 102.925 5.08354 103.484 4.71347C104.523 4.03177 105.681 3.62275 106.859 3.25268C109.375 2.49308 111.951 1.90876 114.567 1.53869C117.223 1.14915 119.879 0.81804 122.535 0.525883C124.932 0.253203 127.348 0.0584314 129.765 0.0389543C129.824 0.0389543 129.864 0.0194771 129.904 0C131.482 0 133.06 0 134.617 0ZM248.006 20.6068C248.126 20.5873 248.226 20.5679 248.326 20.5289C249.864 20.1588 251.282 19.5551 252.659 18.8344C254.377 17.9579 256.014 16.9451 257.452 15.6402C257.732 15.3869 257.971 15.0558 258.131 14.7247C258.371 14.2378 258.091 13.7703 257.552 13.634C257.352 13.595 257.153 13.5561 256.953 13.6145C256.394 13.7314 255.855 13.8677 255.315 14.0625C253.079 14.8026 251.042 15.8739 249.364 17.5489C248.785 18.1137 248.286 18.7565 248.026 19.5161C247.927 19.8667 247.867 20.2173 248.006 20.6068Z" fill="white"/>
<path d="M73.3296 13.5366C73.5492 13.7119 73.8088 13.8872 74.0485 14.0625C74.8672 14.6663 75.4863 15.4064 75.686 16.4192C75.9256 17.6853 75.6261 18.8539 74.9871 19.9446C74.2282 21.2301 73.1299 22.165 71.8717 22.9636C69.8947 24.2296 67.718 25.0476 65.4814 25.6904C62.9252 26.411 60.3291 26.7616 57.6731 26.8785C56.0955 26.9369 54.5379 26.9174 52.9602 26.7616C50.9832 26.5668 49.0461 26.1968 47.2488 25.3203C46.1904 24.7944 45.2718 24.1127 44.6727 23.0804C43.6742 21.347 43.834 19.6525 44.9723 18.0164C45.7511 16.8867 46.8095 16.0297 47.9678 15.2896C50.0047 13.9846 52.2213 13.0497 54.6177 12.5238C54.7176 12.5043 54.8374 12.4849 54.9373 12.4654C55.0371 12.4459 55.1569 12.4264 55.2967 12.407C55.2168 12.3096 55.1569 12.2317 55.117 12.1537C54.0785 10.6345 54.0985 9.09584 54.9572 7.51819C55.6961 6.17426 56.8344 5.21989 58.1524 4.42132C59.9897 3.31113 61.9667 2.55152 64.0435 2.00616C66.5797 1.34393 69.1558 0.993344 71.7919 1.11021C73.5492 1.18812 75.2866 1.4608 76.9042 2.18145C77.7629 2.57099 78.5417 3.05792 79.1807 3.73962C80.4389 5.1225 80.6785 6.68067 79.8397 8.33623C79.0409 9.91388 77.8028 11.0825 76.2651 11.9785C75.2866 12.5628 74.3081 13.0302 73.3296 13.5366ZM62.1264 14.9585C60.449 14.9779 58.8314 15.1532 57.2538 15.5428C55.6362 15.9323 54.0586 16.4972 52.6607 17.4126C52.0017 17.8411 51.4226 18.328 51.0232 19.0097C50.5239 19.8667 50.6837 20.7821 51.4425 21.4249C51.8619 21.7755 52.3412 22.0287 52.8604 22.204C54.2383 22.6714 55.6562 22.7883 57.094 22.7688C58.7116 22.7493 60.2892 22.5545 61.8469 22.1845C63.5243 21.7949 65.1419 21.2301 66.5997 20.2757C67.2188 19.8667 67.7779 19.3993 68.1573 18.7565C68.6366 17.9579 68.5168 17.1204 67.8378 16.4777C67.3586 16.0102 66.7595 15.7181 66.1204 15.5038C64.8224 15.0753 63.4644 14.9585 62.1264 14.9585ZM64.6826 11.2578C66.6396 11.2578 68.4569 11.0046 70.0145 10.5761C71.3126 10.2255 72.5507 9.73858 73.6691 8.99845C74.1483 8.68682 74.5677 8.31675 74.8872 7.8493C75.3665 7.10917 75.2467 6.38851 74.5677 5.84315C74.4079 5.72629 74.2482 5.60943 74.0685 5.51204C73.2497 5.08355 72.3311 4.92773 71.4124 4.84982C69.4155 4.694 67.4584 4.94721 65.5413 5.45361C64.1035 5.84315 62.7255 6.38851 61.5273 7.30394C61.088 7.63505 60.7086 8.02459 60.4889 8.531C60.2293 9.09584 60.3291 9.68015 60.7884 10.0892C61.068 10.3424 61.4075 10.5566 61.767 10.7124C62.8054 11.1799 63.9437 11.2578 64.6826 11.2578Z" fill="white"/>
<path d="M31.1331 4.88872C29.875 5.55095 28.6169 6.19369 27.3987 6.87539C23.5645 9.05683 20.0298 11.6473 16.8147 14.6273C14.3983 16.8672 12.1617 19.2823 10.2645 21.9507C9.78526 22.6324 9.36589 23.3531 8.90658 24.0348C8.3674 24.8723 7.74833 25.6319 6.86965 26.1188C6.17071 26.5084 5.41185 26.6447 4.63302 26.6447C3.13528 26.6642 1.63753 26.6447 0.11982 26.6447C0.0998496 26.6447 0.0798797 26.6447 0 26.6252C4.93257 18.0358 11.4827 11.0435 20.549 6.46637C20.2295 6.48585 19.89 6.50533 19.5705 6.5248C18.4722 6.56376 17.3738 6.60271 16.2755 6.64167C14.7777 6.7001 13.28 6.7001 11.7823 6.79748C9.66544 6.9533 7.5686 7.32337 5.59158 8.14141C5.37191 8.23879 5.17221 8.35566 4.95254 8.45304C4.65299 8.58938 4.33347 8.64781 3.99398 8.60886C3.49474 8.53095 3.27507 8.14141 3.51471 7.71291C3.69444 7.3818 3.9141 7.05069 4.13377 6.73905C5.03242 5.5899 5.97101 4.46023 6.88962 3.33055C7.52866 2.55147 8.38737 2.20088 9.38586 2.10349C9.80523 2.06454 10.2046 2.04506 10.624 2.04506C12.5012 2.02558 14.3783 2.02558 16.2555 1.98663C18.3923 1.9282 20.5291 1.88924 22.6659 1.7529C24.3833 1.63604 26.1007 1.40231 27.7981 1.22702C27.9978 1.20754 28.1177 1.22702 28.2574 1.40231C29.1761 2.53199 30.1146 3.64219 31.0532 4.75238C31.0932 4.83029 31.1131 4.86925 31.1331 4.88872Z" fill="white"/>
<path d="M50.7436 4.16808C49.9847 5.0056 49.2458 5.80416 48.5069 6.6222C44.7726 10.7124 41.0382 14.8026 37.3038 18.8733C35.4865 20.86 33.6693 22.8661 31.8321 24.8528C30.8535 25.9241 29.5954 26.5084 28.1376 26.5863C26.4801 26.6837 24.8026 26.6837 23.1451 26.7226C23.1252 26.7226 23.0852 26.7031 23.0253 26.7031C28.4771 20.7626 33.9089 14.861 39.3607 8.9205C37.0242 8.95946 34.7477 8.99841 32.3712 9.03737C32.5909 8.78416 32.7706 8.58939 32.9304 8.4141C33.9289 7.3039 34.9274 6.1937 35.9259 5.10298C36.0058 5.02507 36.1256 4.94717 36.2454 4.90821C37.9029 4.46024 39.5604 4.07069 41.1979 3.58377C43.0951 2.99945 44.9123 2.20089 46.7096 1.38285C46.8694 1.30494 46.9693 1.32442 47.109 1.4218C48.2673 2.29827 49.4256 3.15527 50.5838 4.01226C50.6038 4.05122 50.6637 4.10965 50.7436 4.16808Z" fill="white"/>
<path d="M347 1.3939C345.122 4.149 342.891 5.47145 339.252 5.25104C333.499 4.92043 327.688 4.25844 322.052 5.36048C319.939 5.80129 316.828 7.0694 316.945 9.49389C317.063 11.5327 319.874 11.8883 322.008 12.1875C326.814 12.6562 331.855 12.7449 336.493 14.0673C339.545 14.949 343.184 15.7204 343.361 19.4673C343.537 23.2143 340.015 24.3714 337.021 25.4183C328.333 28.5041 319.176 29.2755 310.019 29.7163C299.277 30.2673 288.593 30.0469 277.792 28.7796C278.79 25.8592 280.61 24.8122 283.897 25.0877C297.281 26.1898 310.606 26.3007 323.813 23.7661C325.34 23.4905 326.807 22.9395 328.216 22.3885C329.155 22.0028 331.14 21.0938 331.173 19.302C331.14 17.8125 329.192 17.0246 327.981 16.8768C323.931 16.4062 321.253 16.4367 317.437 15.7204C314.502 15.1694 310.547 14.6184 307.964 13.0204C304.207 10.651 304.09 7.89593 307.729 5.36124C312.543 2.05513 318.237 1.00819 323.931 0.40207C331.034 -0.314255 338.195 -0.0387453 345.239 0.953089C345.826 1.00819 346.354 1.2286 347 1.3939Z" fill="white"/>
</svg>
