<svg width="224" height="22" viewBox="0 0 224 22" fill="none" xmlns="http://www.w3.org/2000/svg">
<path d="M102.702 0C103.022 0.0152355 103.357 0.0457064 103.677 0.0609418C105.688 0.16759 107.669 0.441828 109.604 1.05125C110.427 1.31025 111.234 1.63019 111.95 2.13296C112.362 2.4072 112.727 2.74238 112.986 3.18421C113.337 3.80886 113.382 4.44875 113.062 5.10388C112.621 5.9723 111.965 6.64266 111.204 7.23684C110.061 8.13573 108.781 8.79086 107.471 9.36981C106.907 9.61357 106.343 9.81164 105.78 10.0402C105.612 10.1011 105.521 10.2535 105.582 10.4363C105.612 10.5429 105.688 10.6344 105.749 10.7105C106.283 11.3504 106.618 12.0512 106.557 12.9044C106.511 13.4834 106.283 13.9862 105.993 14.4889C105.673 15.0679 105.155 15.4488 104.637 15.8296C103.357 16.7895 101.94 17.4751 100.447 18.0388C99.579 18.3587 98.6801 18.633 97.7964 18.9224C97.7507 18.9377 97.705 18.9529 97.6593 18.9986C97.7964 18.9986 97.9183 18.9834 98.0554 18.9834C99.7008 18.831 101.346 18.633 102.976 18.3283C105.277 17.9169 107.547 17.3532 109.771 16.6676C110.335 16.5 110.807 16.1648 111.158 15.6925C112.163 14.3518 113.413 13.2853 114.769 12.3255C116.688 11 118.715 9.87258 120.848 8.94321C121.762 8.54709 122.722 8.30332 123.727 8.31856C125.312 8.3338 126.546 9.47645 126.652 11.0609C126.713 11.8684 126.18 12.4321 125.327 12.4778C125.083 12.4931 124.839 12.4778 124.596 12.4474C123.666 12.3255 122.752 12.4626 121.868 12.7064C119.934 13.2396 118.105 13.9861 116.475 15.1898C115.866 15.6316 115.302 16.1191 114.845 16.7285C114.616 17.0485 114.388 17.3684 114.327 17.7645C114.266 18.1759 114.403 18.5111 114.753 18.7396C115.165 19.0139 115.652 19.0748 116.125 19.1053C118.258 19.2119 120.284 18.7548 122.234 17.9169C123.788 17.2618 125.205 16.3476 126.439 15.1898C126.774 14.8698 127.064 14.5042 127.338 14.1385C127.78 13.5596 127.795 12.8892 127.688 12.2036C127.627 11.8684 127.506 11.5485 127.445 11.2133C127.353 10.7258 127.536 10.3906 127.993 10.2078C128.42 10.0402 128.846 10.0097 129.303 10.0402C130.659 10.1468 132.015 10.2687 133.371 10.3449C134.453 10.4058 135.535 10.4058 136.616 10.2382C137.409 10.1163 138.17 9.90305 138.886 9.5374C139.313 9.3241 139.785 9.27839 140.258 9.44598C140.73 9.61357 140.898 10.0249 140.943 10.482C140.974 10.741 140.958 11.0152 140.958 11.2895C140.958 11.4418 140.943 11.5942 140.958 11.7465C140.974 11.9598 141.08 12.0512 141.294 12.0055C141.507 11.9598 141.735 11.8989 141.934 11.8075C143.975 11 146.017 10.1773 148.043 9.36981C148.713 9.09557 149.399 9.1108 150.039 9.44598C150.892 9.87258 151.669 10.3906 152.202 11.2133C152.263 11.3199 152.324 11.4266 152.37 11.5332C152.507 11.9294 152.309 12.2493 151.882 12.295C151.699 12.3103 151.517 12.3103 151.334 12.2798C150.709 12.1427 150.1 12.1731 149.49 12.295C146.458 12.9349 143.579 13.9709 140.821 15.3878C140.456 15.5706 140.334 15.8296 140.303 16.1953C140.212 17.277 140.684 18.054 141.659 18.5111C142.345 18.831 143.091 18.9377 143.838 19.0139C145.422 19.151 146.961 18.9681 148.454 18.4044C149.399 18.0388 149.399 18.054 150.1 17.1399C150.374 16.7742 150.694 16.5152 151.151 16.5C151.38 16.4848 151.623 16.5152 151.821 16.5914C153.406 17.2161 155.021 17.7036 156.681 18.0235C158.053 18.2978 159.454 18.4501 160.856 18.4806C161.313 18.4958 161.77 18.4197 162.227 18.3587C162.41 18.3283 162.593 18.2216 162.745 18.115C163.019 17.9169 163.05 17.6122 162.837 17.338C162.745 17.2161 162.623 17.1094 162.486 17.018C161.206 16.0429 159.789 15.3116 158.327 14.6413C157.687 14.3518 157.047 14.0623 156.407 13.7576C156.011 13.5748 155.63 13.3463 155.326 13.0263C154.899 12.5997 154.899 12.1274 155.295 11.6856C155.706 11.2285 156.24 10.9238 156.788 10.6801C159.15 9.64404 161.603 9.00416 164.162 8.66898C165.457 8.50139 166.767 8.39474 168.078 8.44044C169.098 8.48615 170.089 8.71468 171.018 9.14128C171.216 9.23269 171.399 9.38504 171.551 9.5374C171.81 9.81164 171.841 10.1621 171.643 10.4668C171.109 11.2895 170.424 11.9751 169.51 12.3712C169.296 12.4626 169.037 12.4626 168.794 12.4626C168.565 12.4626 168.382 12.3103 168.276 12.1122C168.245 12.0665 168.23 12.0055 168.245 11.9598C168.321 11.777 168.215 11.6704 168.078 11.6399C167.819 11.5789 167.544 11.518 167.27 11.4875C164.787 11.259 162.364 11.5332 159.972 12.2188C159.729 12.295 159.485 12.4017 159.256 12.5388C158.982 12.7216 158.982 12.9654 159.256 13.1634C159.393 13.2548 159.546 13.331 159.698 13.392C162.06 14.3366 164.375 15.403 166.615 16.6371C167.057 16.8809 167.346 17.2161 167.392 17.7341C167.392 17.7645 167.407 17.7798 167.407 17.8103C167.94 17.7341 168.458 17.5817 168.961 17.3989C170.454 16.8199 171.81 15.9668 173.105 15.0374C174.994 13.6662 176.747 12.1122 178.453 10.5429C179.855 9.24792 181.287 7.98338 182.688 6.7036C182.749 6.64266 182.81 6.59695 182.917 6.4903C182.719 6.50554 182.582 6.50554 182.445 6.52078C180.967 6.59695 179.504 6.73407 178.057 7.03878C177.127 7.23684 176.229 7.49585 175.375 7.92244C175.177 8.01385 174.934 8.05956 174.705 8.02909C174.324 7.99862 174.172 7.67867 174.37 7.35873C174.568 7.03878 174.766 6.71884 175.025 6.45983C175.482 5.98754 175.97 5.53047 176.457 5.11911C176.945 4.70776 177.554 4.54017 178.179 4.47922C179.626 4.34211 181.089 4.22022 182.551 4.11357C183.496 4.0374 184.44 3.99169 185.4 3.93075C185.476 3.93075 185.553 3.86981 185.598 3.8241C186.01 3.44321 186.421 3.06233 186.832 2.68144C187.229 2.28532 187.731 2.11773 188.265 2.10249C189.285 2.08726 190.306 2.08726 191.342 2.08726C191.464 2.08726 191.586 2.08726 191.738 2.08726C191.19 2.6205 190.641 3.15374 190.108 3.68698C190.123 3.70222 190.139 3.73269 190.154 3.74792C191.586 3.74792 193.033 3.74792 194.511 3.74792C194.267 4.00693 194.054 4.25069 193.826 4.47922C193.551 4.7687 193.277 5.07341 193.003 5.36288C192.576 5.83518 192.028 6.04848 191.403 6.07895C190.108 6.13989 188.828 6.20083 187.533 6.26177C187.457 6.26177 187.381 6.32272 187.32 6.36842C184.578 8.88227 181.835 11.3961 179.093 13.91C178.255 14.687 177.402 15.4335 176.579 16.2258C176.381 16.4238 176.213 16.6828 176.107 16.9418C175.954 17.2618 176.061 17.5512 176.335 17.7645C176.609 17.9778 176.929 18.0845 177.265 18.1607C178.255 18.3892 179.276 18.3892 180.281 18.3283C181.637 18.2521 182.963 18.0235 184.273 17.6884C184.41 17.6579 184.471 17.597 184.471 17.4446C184.501 16.4848 184.837 15.6316 185.355 14.8393C186.086 13.7119 187.061 12.8283 188.127 12.036C190.001 10.6496 191.982 9.46122 194.191 8.68421C195.41 8.25762 196.659 7.98338 197.954 7.98338C198.64 7.98338 199.31 8.04432 199.981 8.25762C200.087 8.28809 200.194 8.3338 200.285 8.36427C201.108 8.71468 201.413 9.35457 201.139 10.2078C200.986 10.7258 200.727 11.1981 200.392 11.6094C199.386 12.8435 198.168 13.849 196.857 14.7632C195.029 16.0277 193.079 17.0332 191.037 17.8864C190.976 17.9169 190.931 17.9321 190.809 17.9778C191.037 18.0997 191.22 18.2064 191.418 18.2826C192.028 18.5263 192.668 18.5873 193.323 18.6177C195.121 18.6787 196.888 18.4044 198.579 17.7798C200.194 17.1704 201.641 16.2867 202.845 15.0679C204.658 13.2396 206.456 11.4114 208.253 9.56787C208.604 9.20222 208.954 8.83657 209.32 8.48615C209.381 8.42521 209.488 8.3795 209.564 8.3795C210.158 8.34903 210.737 8.34903 211.331 8.3338C212.108 8.31856 212.885 8.30332 213.662 8.28809C213.708 8.28809 213.738 8.28809 213.83 8.28809C213.434 8.72992 213.053 9.14127 212.672 9.56787L212.687 9.5831C212.809 9.52216 212.916 9.47645 213.037 9.41551C215.079 8.47091 217.212 7.96814 219.452 7.89197C220.594 7.8615 221.737 7.93767 222.849 8.24238C223.154 8.3338 223.458 8.47091 223.794 8.60803C223.428 9.01939 223.093 9.38504 222.773 9.76593C222.148 10.5277 221.341 10.9391 220.396 11.1219C219.848 11.2285 219.299 11.1828 218.766 11.1219C216.42 10.8781 214.195 11.2438 212.078 12.3103C210.234 13.2396 208.558 14.3975 207.004 15.7382C205.892 16.7133 204.826 17.7341 203.774 18.7548C203.348 19.1662 202.952 19.608 202.434 19.9432C201.748 20.385 200.986 20.6136 200.163 20.6288C199.371 20.644 198.579 20.6593 197.787 20.6745C197.741 20.6745 197.68 20.6745 197.573 20.6745C198.015 20.2632 198.427 19.8975 198.868 19.5014C198.777 19.5319 198.747 19.5319 198.701 19.5471C196.964 20.2327 195.166 20.6745 193.323 20.903C192.134 21.0402 190.961 21.1011 189.773 20.964C188.63 20.8269 187.518 20.5831 186.497 20.0346C186.269 19.9127 186.055 19.7452 185.842 19.5776C185.751 19.5166 185.69 19.5014 185.598 19.5319C184.364 19.928 183.115 20.2327 181.835 20.4003C180.769 20.5374 179.702 20.6288 178.636 20.705C177.904 20.7507 177.158 20.7507 176.427 20.7507C175.65 20.7355 174.888 20.6288 174.141 20.3698C173.09 20.0042 172.313 19.3643 172.176 18.1607C171.947 18.2825 171.719 18.4044 171.506 18.5111C169.418 19.5928 167.194 20.2936 164.878 20.6898C163.202 20.9792 161.511 21.1011 159.82 21.0859C158.388 21.0706 156.94 20.9792 155.524 20.7355C154.335 20.5374 153.147 20.3241 151.974 20.0956C151.562 20.0194 151.151 19.867 150.74 19.7604C150.633 19.7299 150.511 19.7299 150.42 19.7604C148.073 20.6136 145.651 21.0859 143.152 20.9945C141.141 20.9183 139.298 20.3089 137.759 18.9681C137.348 18.6025 136.997 18.1759 136.738 17.6731C135.733 18.2064 134.803 18.8006 134.103 19.6994C134.057 19.7604 134.026 19.8518 134.011 19.928C133.935 20.4307 133.645 20.705 133.158 20.8269C132.381 21.0249 131.665 20.9183 130.994 20.4917C130.873 20.4155 130.766 20.3089 130.675 20.2022C130.4 19.8518 130.507 19.3643 130.934 19.0443C131.802 18.374 132.655 17.7188 133.539 17.0637C134.331 16.4848 135.123 15.9211 135.931 15.3421C136.037 15.2659 136.068 15.205 136.053 15.0526C135.961 14.4585 136.037 13.8643 136.129 13.2701C136.159 13.0263 136.205 12.7825 136.251 12.5083C134.285 12.9044 132.35 12.5845 130.416 12.2493C130.355 12.5845 130.309 12.9044 130.233 13.2244C129.928 14.4737 129.258 15.5249 128.404 16.4695C127.155 17.856 125.632 18.892 123.971 19.7299C122.234 20.6136 120.436 21.2839 118.532 21.6801C117.283 21.9391 116.018 21.9848 114.753 21.9543C113.961 21.9391 113.154 21.8934 112.392 21.6344C111.524 21.3449 110.792 20.8726 110.335 20.0499C110.213 19.8213 110.122 19.5776 110.015 19.3338C109.695 19.3947 109.345 19.4709 109.01 19.5319C106.816 19.9127 104.637 20.3241 102.443 20.6898C101.026 20.9183 99.5942 21.1011 98.1773 21.2687C96.6233 21.4363 95.0693 21.5734 93.5 21.6801C91.8546 21.7867 90.1939 21.8934 88.5332 21.9238C85.7299 21.9848 82.9266 21.9848 80.1233 22C78.7521 22 77.3961 21.9848 76.0249 21.9238C74.8061 21.8781 73.5873 21.7867 72.3837 21.6953C71.2715 21.6191 70.1441 21.5429 69.0319 21.4515C67.8283 21.3601 66.6094 21.2535 65.4058 21.1316C64.2479 21.0249 63.1053 20.8878 61.9626 20.7507C61.277 20.6745 60.6067 20.5526 59.8754 20.4612C60.1039 20.2632 60.2867 20.0803 60.4848 19.9127C61.2618 19.2576 62.115 18.7701 63.1205 18.572C63.7147 18.4654 64.2936 18.5263 64.8878 18.572C66.1524 18.6482 67.4017 18.7396 68.6662 18.8158C69.9917 18.892 71.3019 18.9834 72.6274 19.0291C74.4557 19.0748 76.2839 19.1205 78.1122 19.09C80.2756 19.0748 82.4391 18.9377 84.6025 18.6787C87.4515 18.3283 90.2701 17.8864 93.0429 17.2008C94.3837 16.8657 95.6939 16.4848 96.9432 15.8906C97.8116 15.4792 98.5277 14.9003 99.1371 14.169C99.3657 13.8947 99.5637 13.59 99.5637 13.2091C99.5637 12.874 99.3961 12.6607 99.1371 12.4778C98.7105 12.1731 98.2078 12.036 97.6898 11.9446C96.3186 11.6856 94.9321 11.6247 93.5305 11.6856C91.0319 11.7922 88.5485 12.0055 86.0803 12.356C83.7798 12.6911 81.4945 13.1482 79.2396 13.7119C79.1482 13.7271 79.0568 13.7881 78.9806 13.8338C77.8989 14.687 76.8324 15.5402 75.7507 16.3781C75.2022 16.8047 74.6537 17.2161 73.9986 17.4598C73.4958 17.6579 72.9626 17.6579 72.4294 17.6731C71.759 17.6731 71.1039 17.6274 70.4335 17.6122C70.4183 17.6122 70.4031 17.597 70.3573 17.5817C70.6163 17.338 70.8601 17.1094 71.1191 16.8809C73.5416 14.6717 75.9945 12.4931 78.5388 10.4363C80.6718 8.71468 82.8352 7.05402 84.9834 5.36288C85.0443 5.31717 85.1357 5.2867 85.2119 5.27147C87.1163 5.08864 89.036 4.90582 90.9405 4.73823C91.0166 4.73823 91.0776 4.72299 91.169 4.7687C88.6247 6.58172 86.0803 8.40997 83.5208 10.223C83.5208 10.2382 83.536 10.2535 83.536 10.2535C83.8712 10.2078 84.2216 10.1621 84.5568 10.1316C86.0194 9.96399 87.4668 9.78116 88.9294 9.62881C90.2549 9.49169 91.5803 9.38504 92.8906 9.27839C93.7742 9.20222 94.6579 9.18698 95.5263 9.1108C98.2687 8.88227 100.965 8.42521 103.51 7.32826C104.241 7.00831 104.972 6.67313 105.506 6.03324C105.704 5.80471 105.886 5.57618 106.024 5.31718C106.252 4.89058 106.176 4.47922 105.795 4.17452C105.582 4.00693 105.323 3.85457 105.048 3.74792C104.332 3.45845 103.571 3.3518 102.809 3.22992C100.828 2.92521 98.8477 2.86427 96.8518 2.90997C95.054 2.95568 93.2562 3.0928 91.4585 3.29086C90.2396 3.42798 89.0208 3.54986 87.8172 3.70222C84.7092 4.14404 81.5554 4.72299 78.4778 5.63712C78.4017 5.65236 78.3255 5.68283 78.2493 5.7133C77.8837 5.81994 77.6399 5.57618 77.7161 5.21053C77.7465 5.04294 77.8227 4.89058 77.8989 4.73823C78.1427 4.2964 78.5236 3.97645 78.9501 3.68698C79.7424 3.15374 80.626 2.8338 81.5249 2.54432C83.4446 1.95014 85.41 1.49307 87.4058 1.2036C89.4321 0.898892 91.4585 0.639889 93.4848 0.411357C95.313 0.198061 97.1565 0.0457064 99 0.0304709C99.0457 0.0304709 99.0762 0.0152355 99.1067 0C100.31 0 101.514 0 102.702 0ZM189.209 16.1191C189.301 16.1039 189.377 16.0886 189.453 16.0582C190.626 15.7687 191.708 15.2964 192.759 14.7327C194.069 14.0471 195.319 13.2548 196.416 12.2341C196.629 12.036 196.812 11.777 196.934 11.518C197.116 11.1371 196.903 10.7715 196.492 10.6648C196.339 10.6343 196.187 10.6039 196.035 10.6496C195.608 10.741 195.197 10.8476 194.785 11C193.079 11.5789 191.525 12.4169 190.245 13.7271C189.803 14.169 189.422 14.6717 189.224 15.2659C189.148 15.5402 189.103 15.8144 189.209 16.1191Z" fill="white"/>
<path d="M55.9446 10.5887C56.1122 10.7258 56.3103 10.8629 56.4931 11C57.1177 11.4723 57.59 12.0513 57.7424 12.8435C57.9252 13.8338 57.6967 14.7479 57.2091 15.6011C56.6302 16.6067 55.7923 17.338 54.8324 17.9626C53.3241 18.9529 51.6634 19.5928 49.9571 20.0956C48.0069 20.6593 46.0263 20.9335 44 21.0249C42.7964 21.0706 41.608 21.0554 40.4044 20.9335C38.8961 20.7812 37.4183 20.4917 36.0471 19.8061C35.2396 19.3947 34.5388 18.8615 34.0817 18.054C33.32 16.6981 33.4418 15.3726 34.3103 14.0928C34.9044 13.2092 35.7119 12.5388 36.5956 11.9598C38.1496 10.9391 39.8407 10.2078 41.669 9.79641C41.7452 9.78117 41.8366 9.76594 41.9127 9.7507C41.9889 9.73547 42.0803 9.72023 42.187 9.70499C42.126 9.62882 42.0803 9.56788 42.0499 9.50693C41.2576 8.31857 41.2729 7.11497 41.928 5.88089C42.4917 4.82965 43.3601 4.08311 44.3657 3.45846C45.7673 2.59004 47.2756 1.99585 48.8601 1.56926C50.795 1.05125 52.7604 0.777016 54.7715 0.868429C56.1122 0.929371 57.4377 1.14267 58.6718 1.70638C59.3269 2.01109 59.9211 2.39197 60.4086 2.92522C61.3684 4.00693 61.5513 5.22577 60.9114 6.52078C60.3019 7.75486 59.3573 8.66898 58.1842 9.36981C57.4377 9.82688 56.6911 10.1925 55.9446 10.5887ZM47.3975 11.7008C46.1177 11.7161 44.8837 11.8532 43.6801 12.1579C42.446 12.4626 41.2424 12.9044 40.1759 13.6205C39.6731 13.9557 39.2313 14.3366 38.9266 14.8698C38.5457 15.5402 38.6676 16.2562 39.2465 16.759C39.5665 17.0333 39.9321 17.2313 40.3283 17.3684C41.3795 17.7341 42.4612 17.8255 43.5582 17.8103C44.7922 17.795 45.9958 17.6427 47.1842 17.3532C48.464 17.0485 49.6981 16.6067 50.8103 15.8601C51.2826 15.5402 51.7091 15.1745 51.9986 14.6718C52.3643 14.0471 52.2729 13.392 51.7549 12.8892C51.3892 12.5236 50.9321 12.295 50.4446 12.1274C49.4543 11.7923 48.4183 11.7008 47.3975 11.7008ZM49.3476 8.8061C50.8407 8.8061 52.2272 8.60804 53.4155 8.27286C54.4058 7.99862 55.3504 7.61774 56.2036 7.03879C56.5693 6.79502 56.8892 6.50555 57.133 6.1399C57.4986 5.56095 57.4072 4.99724 56.8892 4.57065C56.7673 4.47923 56.6454 4.38782 56.5083 4.31164C55.8837 3.97646 55.1828 3.85458 54.482 3.79364C52.9585 3.67175 51.4654 3.86981 50.0028 4.26594C48.9058 4.57065 47.8546 4.99724 46.9404 5.7133C46.6053 5.97231 46.3158 6.27702 46.1482 6.67314C45.9501 7.11497 46.0263 7.57203 46.3767 7.89197C46.59 8.09004 46.849 8.25763 47.1233 8.37951C47.9155 8.74516 48.7839 8.8061 49.3476 8.8061Z" fill="white"/>
<path d="M23.7521 3.82407C22.7922 4.34207 21.8324 4.84484 20.903 5.37808C17.9778 7.08446 15.2812 9.11077 12.8283 11.4418C10.9848 13.1939 9.27839 15.0831 7.83103 17.1703C7.46537 17.7036 7.14543 18.2673 6.79501 18.8005C6.38366 19.4556 5.91136 20.0498 5.241 20.4307C4.70776 20.7354 4.12881 20.8421 3.53463 20.8421C2.39197 20.8573 1.24931 20.8421 0.0914128 20.8421C0.0761773 20.8421 0.0609418 20.8421 0 20.8268C3.76316 14.108 8.76039 8.63847 15.6773 5.05814C15.4335 5.07338 15.1745 5.08861 14.9307 5.10385C14.0928 5.13432 13.2548 5.16479 12.4169 5.19526C11.2742 5.24097 10.1316 5.24097 8.98892 5.31714C7.37396 5.43903 5.77424 5.7285 4.26593 6.36839C4.09834 6.44457 3.94598 6.53598 3.77839 6.61216C3.54986 6.71881 3.30609 6.76451 3.04709 6.73404C2.66621 6.6731 2.49862 6.36839 2.68144 6.03321C2.81856 5.77421 2.98615 5.5152 3.15374 5.27144C3.83934 4.37254 4.5554 3.48889 5.25623 2.60523C5.74377 1.99581 6.39889 1.72158 7.16067 1.6454C7.48061 1.61493 7.78532 1.59969 8.10526 1.59969C9.5374 1.58446 10.9695 1.58446 12.4017 1.55398C14.0319 1.50828 15.6621 1.47781 17.2922 1.37116C18.6025 1.27975 19.9127 1.09692 21.2078 0.959802C21.3601 0.944567 21.4515 0.959802 21.5582 1.09692C22.259 1.98058 22.9751 2.849 23.6911 3.71742C23.7216 3.77836 23.7368 3.80883 23.7521 3.82407Z" fill="white"/>
<path d="M38.7133 3.26036C38.1343 3.91549 37.5706 4.54014 37.0069 5.18003C34.1579 8.37948 31.3089 11.5789 28.4598 14.7631C27.0734 16.3172 25.687 17.8864 24.2853 19.4404C23.5388 20.2784 22.5789 20.7354 21.4668 20.7964C20.2022 20.8726 18.9224 20.8726 17.6579 20.903C17.6427 20.903 17.6122 20.8878 17.5665 20.8878C21.7258 16.241 25.8698 11.6246 30.0291 6.97782C28.2465 7.00829 26.5097 7.03876 24.6967 7.06923C24.8643 6.87117 25.0014 6.71881 25.1233 6.58169C25.885 5.71327 26.6468 4.84485 27.4086 3.99167C27.4695 3.93072 27.5609 3.86978 27.6524 3.83931C28.9169 3.4889 30.1814 3.18419 31.4307 2.8033C32.8781 2.34624 34.2645 1.72158 35.6357 1.08169C35.7576 1.02075 35.8338 1.03599 35.9404 1.11216C36.8241 1.79776 37.7078 2.46812 38.5914 3.13848C38.6067 3.16895 38.6524 3.21466 38.7133 3.26036Z" fill="white"/>
</svg>
