<svg width="256" height="22" viewBox="0 0 256 22" fill="none" xmlns="http://www.w3.org/2000/svg">
<path d="M58.5233 21.9124C58.4649 21.8832 58.3773 21.854 58.3188 21.854C56.9169 21.8248 55.5442 21.8248 54.1423 21.7371C51.8933 21.6203 49.6736 21.4743 47.5415 20.7149C46.7529 20.452 46.0227 20.1016 45.4386 19.4882C44.7668 18.7872 44.5916 17.9694 44.9421 17.064C45.3218 16.071 46.0812 15.37 46.8697 14.6983C48.6514 13.2087 50.6958 12.1865 52.8279 11.2519C57.2674 9.32421 61.8821 8.0099 66.5844 6.92925C70.5857 6.02383 74.6163 5.32287 78.7052 4.76794C81.1002 4.44666 83.4952 4.1838 85.8901 3.95015C88.2267 3.7457 90.5924 3.59966 92.929 3.45363C93.1042 3.45363 93.2795 3.45363 93.4547 3.48283C93.8636 3.54125 93.9804 3.7457 93.776 4.12539C93.3379 4.88477 92.8414 5.4689 91.8191 5.61494C88.3143 6.08225 84.8095 6.57876 81.3047 7.1629C77.0112 7.86387 72.7762 8.79849 68.5705 9.93756C66.2631 10.5801 63.9558 11.1935 61.6484 11.9236C59.4579 12.6246 57.3258 13.53 55.2521 14.5522C54.5804 14.9027 53.8794 15.2532 53.266 15.6913C52.3606 16.3339 52.4483 17.0056 53.4997 17.3269C54.4927 17.6482 55.5442 17.8526 56.5664 17.9694C59.7208 18.3491 62.9043 18.2907 66.0879 18.2615C67.9863 18.2323 69.8556 18.1739 71.754 18.0863C73.9445 17.9987 76.135 17.8526 78.2963 17.7066C79.7567 17.619 81.2462 17.4729 82.7066 17.3561C82.7942 17.3561 82.9402 17.2977 82.9986 17.2101C83.8164 16.1294 84.9263 15.3992 86.0946 14.8151C88.8984 13.3548 91.9068 12.4493 95.0027 11.9236C97.0472 11.5731 99.1208 11.3395 101.195 11.135C102.567 10.989 103.94 10.989 105.313 10.9306C105.313 10.9598 105.342 10.989 105.342 11.0182C105.284 11.1058 105.196 11.2227 105.137 11.3103C104.057 12.6246 102.976 13.9389 101.896 15.2532C101.341 15.925 101.545 17.1224 102.334 17.5021C102.596 17.619 103.005 17.619 103.268 17.5313C104.495 17.064 105.722 16.5383 106.919 16.0418C107.036 15.9834 107.124 15.8666 107.211 15.7789C108.233 14.4938 109.285 13.2379 110.278 11.9236C110.57 11.5439 110.862 11.3395 111.359 11.3103C112.585 11.2227 113.783 11.0474 115.009 10.9306C115.097 10.9306 115.185 10.9306 115.36 10.9306C114.717 11.7192 114.104 12.4493 113.403 13.2963C113.607 13.2379 113.724 13.2087 113.812 13.1503C116.002 12.2741 118.222 11.5439 120.5 11.0474C121.26 10.8722 122.048 10.7846 122.837 10.6677C124.093 10.5217 124.852 11.1935 125.349 12.2449C125.436 12.4201 125.524 12.5954 125.641 12.7998C125.991 12.3909 126.283 12.0112 126.605 11.6608C126.692 11.5439 126.838 11.4563 126.955 11.4271C128.328 11.2519 129.73 11.1058 131.102 10.9306C131.161 10.9306 131.219 10.9306 131.336 10.9306C130.693 11.7484 130.08 12.4786 129.467 13.2379C129.467 13.2671 129.496 13.2671 129.496 13.2963C130.226 13.0335 130.927 12.7414 131.657 12.4786C133.789 11.7192 135.951 10.989 138.229 10.7553C138.755 10.6969 139.28 10.7553 139.806 10.7846C140.215 10.8138 140.565 11.0182 140.77 11.3395C141.091 11.836 141.354 12.3325 141.646 12.829C141.704 12.9167 141.734 13.0335 141.763 13.0627C143.661 12.3909 145.501 11.7192 147.371 11.1058C148.86 10.6385 150.379 10.288 151.956 10.288C153.329 10.288 154.351 10.843 154.935 12.1281C155.052 12.3909 155.198 12.6538 155.286 12.9167C155.461 13.4132 155.315 13.8513 154.848 14.0849C154.088 14.4646 153.3 14.7859 152.511 15.078C149.123 16.3047 145.677 17.3269 142.201 18.2615C142.143 18.2615 142.113 18.2907 142.055 18.4076C142.522 18.4368 142.99 18.5244 143.457 18.5244C145.472 18.612 147.487 18.4368 149.474 18.1739C151.781 17.8818 154.059 17.4729 156.308 16.8596C156.454 16.8304 156.629 16.7136 156.717 16.5967C158.06 14.9611 159.375 13.3256 160.718 11.69C160.806 11.5731 160.981 11.4563 161.127 11.4271C162.5 11.2811 163.872 11.135 165.216 10.989C165.274 10.989 165.362 10.989 165.479 10.989C164.807 11.7776 164.194 12.537 163.58 13.2671C163.58 13.2963 163.61 13.2963 163.61 13.3256C163.814 13.2379 164.048 13.1795 164.252 13.0919C166.53 12.2449 168.838 11.3979 171.233 10.9598C172.05 10.8138 172.897 10.7553 173.715 10.7553C174.416 10.7553 174.942 11.1935 175.263 11.8068C175.526 12.2741 175.76 12.7706 176.052 13.2963C181.017 11.4563 186.187 10.9598 191.502 10.9306C190.947 11.6023 190.451 12.2157 189.954 12.829C189.282 13.6468 188.611 14.4646 187.939 15.2824C187.472 15.8666 187.793 17.0932 188.465 17.3561C188.669 17.4437 188.932 17.4437 189.136 17.3561C190.013 17.0056 190.86 16.6259 191.736 16.2462C191.853 16.1878 191.999 16.1294 192.116 16.071C192.67 15.7789 193.225 15.7497 193.518 16.5383C193.605 16.7428 193.693 16.918 193.81 17.1224C193.313 17.3853 192.846 17.6774 192.349 17.911C190.684 18.6996 188.99 19.4882 187.296 20.2476C186.917 20.4228 186.479 20.5104 186.041 20.5104C185.223 20.5397 184.668 20.0139 184.288 19.3714C183.996 18.8457 183.733 18.3199 183.47 17.8526C181.981 18.4368 180.491 19.0501 179.002 19.605C177.016 20.3352 174.942 20.8025 172.81 20.9778C171.846 21.0362 170.911 21.0654 169.977 20.7441C168.779 20.3352 168.4 19.459 168.984 18.3199C169.48 17.3561 170.269 16.6551 171.145 16.0418C171.671 15.6913 172.226 15.37 172.839 14.9611C172.313 15.078 171.904 15.1656 171.495 15.2532C171.262 15.3116 171.145 15.2532 171.057 15.0196C170.678 14.0849 170.123 13.8221 169.13 14.0265C166.355 14.523 163.668 15.4577 161.069 16.5091C160.601 16.6843 160.251 17.1809 159.871 17.5606C159.199 18.2323 158.557 18.9333 157.856 19.5758C157.126 20.2768 156.22 20.5981 155.227 20.5689C154.643 20.5397 154.059 20.5689 153.358 20.5689C153.738 20.1308 154.059 19.7511 154.439 19.2838C153.884 19.4006 153.416 19.4882 152.978 19.5758C150.875 19.9555 148.773 20.3352 146.67 20.6565C145.706 20.8025 144.742 20.8317 143.778 20.8317C142.493 20.8609 141.179 20.8609 139.894 20.8025C138.959 20.7733 138.054 20.5689 137.207 20.0723C136.155 19.459 135.863 18.4076 136.476 17.3561C136.944 16.5383 137.645 15.925 138.375 15.37C138.492 15.2824 138.609 15.1948 138.696 15.0488C138.2 15.1364 137.703 15.2532 137.207 15.3116C137.119 15.3116 136.944 15.224 136.915 15.1656C136.418 14.0849 135.922 13.7929 134.724 14.0849C133.264 14.4354 131.803 14.8443 130.372 15.2532C129.438 15.5161 128.561 15.925 127.627 16.1878C126.809 16.4215 126.254 16.9472 125.699 17.5313C124.94 18.3199 124.151 19.1085 123.333 19.8679C122.778 20.3936 122.077 20.5981 121.318 20.5981C120.646 20.5981 120.004 20.5981 119.215 20.5981C120.822 18.6412 122.37 16.772 123.976 14.8151C122.924 14.9903 121.961 15.1656 120.997 15.3116C120.968 15.224 120.909 15.1656 120.909 15.1072C120.529 14.1726 119.887 13.7929 118.894 14.0265C116.148 14.6399 113.461 15.4284 110.862 16.5091C110.716 16.5675 110.599 16.6551 110.512 16.772C109.519 17.765 108.496 18.7288 107.532 19.7219C106.744 20.5397 105.751 20.6565 104.699 20.5689C104.261 20.5397 103.823 20.5689 103.268 20.5689C103.765 19.9555 104.174 19.459 104.583 18.9333C104.583 18.9041 104.553 18.9041 104.553 18.8749C104.349 18.9625 104.174 19.0501 103.969 19.1377C102.889 19.5758 101.779 20.0139 100.669 20.4228C99.9971 20.6565 99.2669 20.6857 98.6827 20.16C98.3907 19.8679 98.157 19.4882 97.9234 19.1085C97.6897 18.6996 97.5145 18.2615 97.31 17.8526C96.4046 18.2615 95.4992 18.6704 94.5646 19.0209C92.2864 19.9263 89.9791 20.6857 87.5257 21.007C86.4159 21.153 85.306 21.153 84.2253 20.8901C83.6704 20.7441 83.1447 20.5104 82.7358 20.1016C82.6482 20.0139 82.5021 19.9847 82.4145 19.9847C79.6106 20.306 76.836 20.6565 74.0321 20.9778C72.0753 21.1822 70.1476 21.3574 68.1908 21.5035C66.2631 21.6495 64.3647 21.7663 62.437 21.854C61.4148 21.9124 60.4217 21.9124 59.3995 21.9416C59.2827 21.9416 59.1366 21.9708 59.0198 22C58.9614 21.9124 58.7569 21.9124 58.5233 21.9124ZM186.625 12.9751C185.982 13.0627 185.34 13.1503 184.697 13.2671C181.601 13.8805 178.593 14.7275 175.76 16.1878C175.146 16.5091 174.591 16.9472 174.066 17.3853C173.744 17.6482 173.861 17.9402 174.27 17.9987C174.591 18.0571 174.942 18.0571 175.263 17.9987C178.388 17.4729 181.367 16.5091 184.142 14.9611C185.047 14.4354 185.894 13.7929 186.625 12.9751ZM100.61 13.1211C100.581 13.0919 100.552 13.0335 100.552 13.0043C100.523 13.0043 100.494 12.9751 100.435 13.0043C99.9386 13.0627 99.4713 13.1211 98.9748 13.2087C95.7036 13.7929 92.5201 14.7567 89.541 16.2462C88.9861 16.5383 88.4603 16.918 87.9638 17.3269C87.6133 17.619 87.701 17.9402 88.1975 17.9694C88.7816 17.9987 89.3658 17.9694 89.9207 17.8526C92.929 17.2393 95.8205 16.2754 98.4491 14.6691C99.1793 14.231 99.8802 13.6468 100.61 13.1211ZM140.887 17.0056C140.916 17.0348 140.916 17.064 140.945 17.0932C141.062 17.064 141.179 17.064 141.266 17.0056C143.632 16.2462 145.998 15.4869 148.364 14.6983C149.211 14.4062 150.058 14.0849 150.905 13.7929C151.168 13.7052 151.226 13.5884 151.08 13.3256C150.729 12.7122 150.408 12.537 149.736 12.7122C148.919 12.9459 148.101 13.1795 147.283 13.4424C145.385 14.1141 143.574 14.9611 141.938 16.1294C141.558 16.3923 141.237 16.7136 140.887 17.0056Z" fill="white"/>
<path d="M26.3081 1.46765C27.0675 1.35082 27.8269 1.23399 28.557 1.11716C30.8644 0.766681 33.1717 0.386991 35.4499 0.0365086C35.7419 -0.0219052 36.034 0.00730172 36.3261 0.00730172C37.5527 0.00730172 38.7502 0.00730172 40.0353 0.00730172C40.0353 0.474612 40.0353 0.941922 40.0353 1.46765C40.6487 1.38003 41.2036 1.2924 41.7877 1.20478C44.2703 0.825094 46.7821 0.416198 49.2647 0.0365086C49.6444 -0.0219052 50.0241 0.00730172 50.4038 0.00730172C51.5136 0.00730172 52.5943 0.00730172 53.7626 0.00730172C53.7626 0.153336 53.7626 0.270164 53.7626 0.386991C53.7626 3.59975 53.7626 6.84171 53.7626 10.0545C53.7626 10.3173 53.6749 10.4342 53.4413 10.551C51.3676 11.398 49.3231 12.3618 47.4831 13.6761C46.9282 14.085 46.4024 14.2603 45.7599 14.2018C45.4386 14.1726 45.1465 14.2018 44.7961 14.2018C44.7961 10.7846 44.7961 7.42585 44.7961 4.00864C44.0951 4.09626 43.4525 4.18389 42.7808 4.27151C41.9922 4.38833 41.2036 4.47595 40.3858 4.56358C40.123 4.59278 40.0353 4.6804 40.0353 4.94326C40.0353 7.86395 40.0353 10.7554 40.0353 13.6761C40.0353 13.8222 40.0353 13.9682 40.0353 14.1726C37.027 14.1726 34.0771 14.1726 31.0396 14.1726C31.0396 10.8138 31.0396 7.42585 31.0396 4.00864C29.9882 4.15468 28.9659 4.27151 27.9437 4.41754C27.5056 4.47595 27.0675 4.53437 26.6294 4.59278C26.3373 4.62199 26.2497 4.70961 26.2497 5.00168C26.2789 7.45506 26.2497 9.90843 26.2497 12.3618C26.2497 13.4133 25.5779 14.1142 24.5557 14.2018C24.4389 14.2018 24.322 14.2018 24.2052 14.2018C16.3193 14.2018 8.40428 14.2018 0.518422 14.2018C0.372388 14.2018 0.226353 14.2018 0.0803189 14.2018C0.0803189 12.9752 0.0803189 11.7777 0.0803189 10.5218C0.25556 10.5218 0.401595 10.5218 0.547629 10.5218C6.27218 10.5218 12.0259 10.5218 17.7505 10.5218C18.3638 10.5218 18.7727 10.2005 18.8019 9.70399C18.8311 9.23668 18.5099 8.85699 18.0133 8.79857C17.8965 8.79857 17.7797 8.79857 17.6629 8.79857C12.5809 8.79857 7.46966 8.79857 2.38766 8.79857C1.54066 8.79857 0.781284 8.53571 0.284767 7.77633C0.138733 7.54268 0.0219052 7.25061 0.0219052 6.98775C-0.00730172 5.23533 -0.00730172 3.48292 0.0219052 1.73051C0.051112 0.825094 0.781284 0.0657155 1.7159 0.00730172C1.83273 0.00730172 1.94956 0.00730172 2.09559 0.00730172C9.45573 0.00730172 16.8451 0.00730172 24.2052 0.00730172C25.3735 0.00730172 25.87 0.357784 26.3081 1.46765ZM12.2888 3.54133C10.4488 3.54133 8.63793 3.54133 6.7979 3.54133C6.68107 3.54133 6.53504 3.54133 6.41821 3.57054C5.92169 3.68737 5.62963 4.15468 5.68804 4.6512C5.74645 5.14771 6.18456 5.4982 6.7979 5.4982C10.4488 5.4982 14.0996 5.4982 17.7505 5.4982C18.393 5.4982 18.8603 5.06009 18.8603 4.47595C18.8603 3.92102 18.393 3.51213 17.7505 3.51213C15.9397 3.54133 14.0996 3.54133 12.2888 3.54133Z" fill="white"/>
<path d="M218.665 20.3645C219.395 19.5467 220.096 18.7581 220.797 17.9987C220.855 17.9403 220.972 17.8819 221.06 17.8819C222.608 17.9403 224.126 17.9695 225.674 18.028C225.733 18.028 225.791 18.028 225.85 18.028C227.573 18.0572 229.296 18.0864 231.019 18.0572C232.83 18.028 234.67 17.9987 236.481 17.9111C238.993 17.7943 241.504 17.6483 243.987 17.181C244.542 17.0641 245.126 16.8889 245.681 16.7428C245.798 16.7136 245.915 16.626 246.031 16.5676C246.294 16.3924 246.294 16.1587 246.031 16.0127C245.681 15.8374 245.301 15.6622 244.922 15.5746C243.052 15.1657 241.154 14.8152 239.285 14.4355C237.123 14.0266 234.991 13.6469 232.859 13.1504C232.1 12.9752 231.34 12.6247 230.669 12.2158C229.676 11.6316 229.646 10.697 230.493 9.90844C231.282 9.20747 232.246 8.74016 233.21 8.36047C235.254 7.54268 237.415 7.07537 239.606 6.72489C241.943 6.3452 244.279 6.11154 246.616 6.08234C247.901 6.05313 249.186 6.02392 250.471 6.05313C251.785 6.08234 253.129 6.19916 254.443 6.31599C255.115 6.37441 255.232 6.69568 254.852 7.22141C254.647 7.54268 254.385 7.86396 254.122 8.09761C253.947 8.27285 253.654 8.38968 253.421 8.38968C251.727 8.4481 250.004 8.41889 248.31 8.50651C245.009 8.65254 241.738 8.91541 238.554 9.87923C238.058 10.0253 237.561 10.2589 237.094 10.4926C236.714 10.697 236.744 10.9891 237.123 11.1059C237.795 11.3104 238.525 11.4856 239.226 11.6316C241.709 12.099 244.191 12.5079 246.645 13.0336C248.368 13.4133 250.062 13.939 251.639 14.786C252.165 15.0781 252.691 15.4285 253.158 15.8374C253.888 16.5092 253.8 17.3854 253.07 18.028C252.399 18.6121 251.581 18.9626 250.705 19.1086C248.923 19.4591 247.112 19.8096 245.301 20.014C243.461 20.2185 241.592 20.3061 239.723 20.3937C238.262 20.4813 236.802 20.5105 235.342 20.5397C233.326 20.569 231.311 20.5982 229.296 20.5982C227.456 20.5982 225.616 20.5397 223.776 20.5105C222.257 20.4813 220.738 20.4229 219.22 20.3645C218.957 20.4229 218.84 20.3937 218.665 20.3645Z" fill="white"/>
<path d="M216.211 13.4717L213.174 13.4425C213.057 13.4425 212.94 13.5009 212.852 13.5885C212.677 13.7346 212.093 14.4355 211.889 14.6108C211.713 14.786 211.421 14.8736 211.188 14.9028C208.997 14.9321 205.814 14.9028 203.594 14.9028C203.302 14.9028 203.185 14.5232 203.419 14.3479C206.748 12.099 212.765 9.1783 217.73 8.65257C218.519 8.56495 219.774 6.75412 220.359 5.73188C220.475 5.52744 220.213 5.26457 219.921 5.32299C215.539 6.2284 205.96 8.24368 198.307 14.9613C197.052 16.0711 197.84 17.5315 199.505 17.6775C200.381 17.7651 201.287 17.7359 202.192 17.7359C204.12 17.7359 206.076 17.7359 208.267 17.7359C208.53 17.7359 208.647 18.028 208.501 18.2324C207.8 19.1086 207.683 19.167 207.099 19.8972C206.953 20.1017 207.069 20.3937 207.332 20.3937C210.37 20.4229 210.72 20.3937 212.444 18.6997C213.758 17.4146 213.729 17.5023 214.634 17.4731C216.737 17.4146 216.503 17.0642 217.73 15.2825C217.876 15.0781 217.73 14.8152 217.496 14.8152C216.357 14.8152 215.569 15.0197 216.416 13.939C216.562 13.7638 216.474 13.4717 216.211 13.4717Z" fill="white"/>
</svg>
