<svg width="347" height="30" viewBox="0 0 347 30" fill="none" xmlns="http://www.w3.org/2000/svg">
<path d="M79.6168 29.8805C79.5373 29.8407 79.4181 29.8009 79.3387 29.8009C77.4314 29.761 75.5639 29.761 73.6567 29.6416C70.5972 29.4822 67.5774 29.2831 64.6769 28.2476C63.604 27.8891 62.6107 27.4112 61.816 26.5748C60.9021 25.619 60.6637 24.5038 61.1405 23.2691C61.6571 21.915 62.6902 20.9591 63.763 20.0431C66.1867 18.0119 68.9681 16.6179 71.8687 15.3435C77.9082 12.7148 84.1862 10.9226 90.5834 9.44897C96.0269 8.21432 101.51 7.25846 107.073 6.50173C110.331 6.06363 113.589 5.70518 116.847 5.38656C120.026 5.10777 123.245 4.90863 126.423 4.70949C126.662 4.70949 126.9 4.70949 127.139 4.74932C127.695 4.82898 127.854 5.10777 127.576 5.62553C126.98 6.66104 126.304 7.4576 124.913 7.65673C120.145 8.29397 115.377 8.97104 110.609 9.76759C104.768 10.7235 99.0069 11.9979 93.2853 13.5512C90.1463 14.4274 87.0073 15.2638 83.8683 16.2595C80.8883 17.2153 77.9877 18.45 75.1666 19.844C74.2527 20.3219 73.2991 20.7998 72.4647 21.3972C71.2329 22.2734 71.3521 23.1895 72.7826 23.6276C74.1335 24.0657 75.5639 24.3445 76.9546 24.5038C81.2459 25.0216 85.5769 24.9419 89.9079 24.9021C92.4906 24.8622 95.0336 24.7826 97.6163 24.6631C100.596 24.5436 103.576 24.3445 106.517 24.1453C108.503 24.0259 110.53 23.8267 112.516 23.6674C112.636 23.6674 112.834 23.5878 112.914 23.4683C114.026 21.9947 115.536 20.999 117.126 20.2024C120.94 18.211 125.033 16.9764 129.244 16.2595C132.026 15.7816 134.847 15.4629 137.668 15.1841C139.536 14.985 141.403 14.985 143.27 14.9053C143.27 14.9452 143.31 14.985 143.31 15.0248C143.231 15.1443 143.112 15.3036 143.032 15.4231C141.562 17.2153 140.092 19.0076 138.622 20.7998C137.867 21.7159 138.145 23.3488 139.218 23.8666C139.575 24.0259 140.132 24.0259 140.489 23.9064C142.158 23.2691 143.827 22.5522 145.456 21.8752C145.615 21.7955 145.734 21.6362 145.853 21.5167C147.244 19.7643 148.674 18.0517 150.025 16.2595C150.423 15.7417 150.82 15.4629 151.495 15.4231C153.164 15.3036 154.793 15.0647 156.462 14.9053C156.581 14.9053 156.701 14.9053 156.939 14.9053C156.065 15.9807 155.23 16.9764 154.277 18.1314C154.555 18.0517 154.714 18.0119 154.833 17.9322C157.813 16.7374 160.833 15.7417 163.932 15.0647C164.965 14.8257 166.038 14.7062 167.111 14.5469C168.819 14.3478 169.852 15.2638 170.528 16.6976C170.647 16.9366 170.766 17.1755 170.925 17.4543C171.402 16.8967 171.799 16.379 172.237 15.901C172.356 15.7417 172.554 15.6222 172.713 15.5824C174.581 15.3435 176.488 15.1443 178.356 14.9053C178.435 14.9053 178.514 14.9053 178.673 14.9053C177.799 16.0205 176.965 17.0162 176.13 18.0517C176.13 18.0916 176.17 18.0916 176.17 18.1314C177.164 17.7729 178.117 17.3747 179.11 17.0162C182.011 15.9807 184.951 14.985 188.051 14.6664C188.766 14.5867 189.481 14.6664 190.196 14.7062C190.753 14.746 191.229 15.0248 191.507 15.4629C191.945 16.14 192.302 16.8171 192.699 17.4941C192.779 17.6136 192.819 17.7729 192.858 17.8128C195.441 16.8967 197.944 15.9807 200.487 15.1443C202.514 14.5071 204.58 14.0291 206.726 14.0291C208.593 14.0291 209.984 14.7859 210.778 16.5383C210.937 16.8967 211.136 17.2552 211.255 17.6136C211.494 18.2907 211.295 18.8881 210.659 19.2067C209.626 19.7245 208.553 20.1626 207.48 20.5609C202.871 22.2336 198.183 23.6276 193.454 24.9021C193.375 24.9021 193.335 24.9419 193.256 25.1012C193.891 25.141 194.527 25.2605 195.163 25.2605C197.905 25.38 200.646 25.141 203.348 24.7826C206.487 24.3843 209.586 23.8267 212.646 22.9903C212.845 22.9505 213.083 22.7912 213.202 22.6319C215.03 20.4016 216.818 18.1712 218.646 15.9409C218.765 15.7816 219.003 15.6222 219.202 15.5824C221.069 15.3833 222.937 15.1841 224.765 14.985C224.844 14.985 224.963 14.985 225.122 14.985C224.208 16.0603 223.374 17.0959 222.54 18.0916C222.54 18.1314 222.579 18.1314 222.579 18.1712C222.857 18.0517 223.175 17.9721 223.454 17.8526C226.553 16.6976 229.692 15.5426 232.95 14.9452C234.062 14.746 235.215 14.6664 236.327 14.6664C237.281 14.6664 237.996 15.2638 238.433 16.1002C238.791 16.7374 239.109 17.4145 239.506 18.1314C246.261 15.6222 253.294 14.9452 260.525 14.9053C259.77 15.8214 259.095 16.6578 258.419 17.4941C257.505 18.6093 256.592 19.7245 255.678 20.8397C255.042 21.6362 255.479 23.309 256.393 23.6674C256.671 23.7869 257.029 23.7869 257.307 23.6674C258.499 23.1895 259.651 22.6717 260.843 22.154C261.002 22.0743 261.201 21.9947 261.36 21.915C262.115 21.5167 262.87 21.4769 263.267 22.5522C263.386 22.831 263.505 23.07 263.664 23.3488C262.989 23.7072 262.353 24.1055 261.678 24.4241C259.413 25.4995 257.108 26.5748 254.804 27.6103C254.287 27.8493 253.691 27.9688 253.095 27.9688C251.982 28.0086 251.227 27.2917 250.711 26.4155C250.314 25.6986 249.956 24.9817 249.598 24.3445C247.572 25.141 245.546 25.9774 243.519 26.7341C240.817 27.7298 237.996 28.3671 235.096 28.606C233.784 28.6857 232.513 28.7255 231.241 28.2874C229.612 27.7298 229.096 26.535 229.89 24.9817C230.566 23.6674 231.639 22.7116 232.831 21.8752C233.546 21.3972 234.301 20.9591 235.135 20.4016C234.42 20.5609 233.864 20.6803 233.308 20.7998C232.99 20.8795 232.831 20.7998 232.712 20.4812C232.195 19.2067 231.44 18.8483 230.089 19.1271C226.314 19.8041 222.659 21.0786 219.123 22.5124C218.487 22.7514 218.01 23.4284 217.493 23.9462C216.58 24.8622 215.705 25.8181 214.752 26.6943C213.758 27.6502 212.527 28.0883 211.176 28.0484C210.381 28.0086 209.586 28.0484 208.633 28.0484C209.149 27.451 209.586 26.9333 210.103 26.296C209.348 26.4553 208.712 26.5748 208.116 26.6943C205.255 27.2121 202.395 27.7298 199.534 28.1679C198.222 28.3671 196.911 28.4069 195.6 28.4069C193.852 28.4467 192.064 28.4467 190.315 28.3671C189.044 28.3272 187.812 28.0484 186.66 27.3714C185.229 26.535 184.832 25.1012 185.667 23.6674C186.302 22.5522 187.256 21.7159 188.249 20.9591C188.408 20.8397 188.567 20.7202 188.686 20.521C188.011 20.6405 187.335 20.7998 186.66 20.8795C186.541 20.8795 186.302 20.76 186.263 20.6803C185.587 19.2067 184.912 18.8085 183.283 19.2067C181.296 19.6847 179.309 20.2422 177.362 20.7998C176.091 21.1583 174.899 21.7159 173.627 22.0743C172.515 22.3929 171.76 23.1098 171.005 23.9064C169.972 24.9817 168.899 26.0571 167.786 27.0926C167.031 27.8095 166.078 28.0883 165.045 28.0883C164.131 28.0883 163.257 28.0883 162.184 28.0883C164.369 25.4198 166.475 22.8709 168.66 20.2024C167.23 20.4414 165.919 20.6803 164.608 20.8795C164.568 20.76 164.488 20.6803 164.488 20.6007C163.972 19.3262 163.098 18.8085 161.747 19.1271C158.012 19.9634 154.356 21.0388 150.82 22.5124C150.621 22.5921 150.462 22.7116 150.343 22.8709C148.992 24.225 147.602 25.5393 146.29 26.8934C145.217 28.0086 143.867 28.1679 142.436 28.0484C141.84 28.0086 141.244 28.0484 140.489 28.0484C141.165 27.2121 141.721 26.535 142.277 25.8181C142.277 25.7783 142.237 25.7783 142.237 25.7384C141.959 25.8579 141.721 25.9774 141.443 26.0969C139.973 26.6943 138.463 27.2917 136.953 27.8493C136.039 28.1679 135.046 28.2078 134.251 27.4909C133.854 27.0926 133.536 26.5748 133.218 26.0571C132.9 25.4995 132.662 24.9021 132.383 24.3445C131.152 24.9021 129.92 25.4597 128.648 25.9376C125.549 27.1722 122.41 28.2078 119.073 28.6459C117.563 28.845 116.053 28.845 114.583 28.4866C113.828 28.2874 113.112 27.9688 112.556 27.4112C112.437 27.2917 112.238 27.2519 112.119 27.2519C108.305 27.69 104.53 28.1679 100.715 28.606C98.0533 28.8848 95.4309 29.1238 92.7687 29.3229C90.1463 29.5221 87.5636 29.6814 84.9411 29.8009C83.5505 29.8805 82.1995 29.8805 80.8088 29.9203C80.6499 29.9203 80.4512 29.9602 80.2923 30C80.2128 29.8805 79.9347 29.8805 79.6168 29.8805ZM253.89 17.6933C253.016 17.8128 252.141 17.9322 251.267 18.0916C247.055 18.9279 242.963 20.0829 239.109 22.0743C238.274 22.5124 237.519 23.1098 236.804 23.7072C236.367 24.0657 236.526 24.464 237.082 24.5436C237.519 24.6233 237.996 24.6233 238.433 24.5436C242.685 23.8267 246.738 22.5124 250.512 20.4016C251.744 19.6847 252.896 18.8085 253.89 17.6933ZM136.873 17.8924C136.834 17.8526 136.794 17.7729 136.794 17.7331C136.754 17.7331 136.714 17.6933 136.635 17.7331C135.959 17.8128 135.324 17.8924 134.648 18.0119C130.198 18.8085 125.867 20.1228 121.814 22.154C121.059 22.5522 120.344 23.07 119.669 23.6276C119.192 24.0259 119.311 24.464 119.986 24.5038C120.781 24.5436 121.576 24.5038 122.331 24.3445C126.423 23.5081 130.357 22.1938 133.933 20.0033C134.926 19.4059 135.88 18.6093 136.873 17.8924ZM191.666 23.1895C191.706 23.2293 191.706 23.2691 191.746 23.309C191.905 23.2691 192.064 23.2691 192.183 23.1895C195.401 22.154 198.62 21.1185 201.838 20.0431C202.991 19.6448 204.143 19.2067 205.295 18.8085C205.653 18.689 205.732 18.5297 205.534 18.1712C205.057 17.3348 204.62 17.0959 203.706 17.3348C202.593 17.6535 201.481 17.9721 200.368 18.3305C197.785 19.2466 195.322 20.4016 193.097 21.9947C192.58 22.3531 192.143 22.7912 191.666 23.1895Z" fill="white"/>
<path d="M35.7903 2.00134C36.8234 1.84202 37.8565 1.68271 38.8498 1.5234C41.9888 1.04547 45.1278 0.527715 48.227 0.0497845C48.6244 -0.0298707 49.0217 0.00995689 49.419 0.00995689C51.0879 0.00995689 52.7169 0.00995689 54.4652 0.00995689C54.4652 0.647198 54.4652 1.28444 54.4652 2.00134C55.2997 1.88185 56.0546 1.76237 56.8493 1.64289C60.2267 1.12513 63.6438 0.567543 67.0212 0.0497845C67.5377 -0.0298707 68.0542 0.00995689 68.5708 0.00995689C70.0807 0.00995689 71.5508 0.00995689 73.1402 0.00995689C73.1402 0.209095 73.1402 0.368405 73.1402 0.527715C73.1402 4.90875 73.1402 9.32961 73.1402 13.7106C73.1402 14.0691 73.021 14.2284 72.7031 14.3877C69.882 15.5427 67.1006 16.857 64.5974 18.6493C63.8424 19.2068 63.1272 19.4458 62.2531 19.3662C61.816 19.3263 61.4187 19.3662 60.9419 19.3662C60.9419 14.7063 60.9419 10.1262 60.9419 5.46633C59.9883 5.58582 59.1141 5.7053 58.2002 5.82478C57.1274 5.98409 56.0546 6.10357 54.9421 6.22306C54.5844 6.26288 54.4652 6.38237 54.4652 6.74082C54.4652 10.7236 54.4652 14.6665 54.4652 18.6493C54.4652 18.8484 54.4652 19.0475 54.4652 19.3263C50.3727 19.3263 46.3595 19.3263 42.2272 19.3263C42.2272 14.7462 42.2272 10.1262 42.2272 5.46633C40.7968 5.66547 39.4061 5.82478 38.0154 6.02392C37.4194 6.10357 36.8234 6.18323 36.2274 6.26288C35.83 6.30271 35.7108 6.42219 35.7108 6.82047C35.7506 10.166 35.7108 13.5115 35.7108 16.857C35.7108 18.2908 34.797 19.2467 33.4063 19.3662C33.2473 19.3662 33.0884 19.3662 32.9295 19.3662C22.2013 19.3662 11.4334 19.3662 0.705277 19.3662C0.506607 19.3662 0.307938 19.3662 0.109268 19.3662C0.109268 17.6934 0.109268 16.0605 0.109268 14.3479C0.347672 14.3479 0.546341 14.3479 0.745011 14.3479C8.53286 14.3479 16.3604 14.3479 24.1483 14.3479C24.9827 14.3479 25.539 13.9098 25.5787 13.2327C25.6184 12.5955 25.1814 12.0777 24.5059 11.9981C24.3469 11.9981 24.188 11.9981 24.0291 11.9981C17.1154 11.9981 10.1619 11.9981 3.24825 11.9981C2.09596 11.9981 1.06288 11.6396 0.387406 10.6041C0.188736 10.2855 0.0298004 9.88719 0.0298004 9.52874C-0.00993347 7.13909 -0.00993347 4.74944 0.0298004 2.35978C0.0695343 1.12513 1.06288 0.089612 2.33437 0.00995689C2.4933 0.00995689 2.65224 0.00995689 2.85091 0.00995689C12.8638 0.00995689 22.9165 0.00995689 32.9295 0.00995689C34.5188 0.00995689 35.1943 0.487888 35.7903 2.00134ZM16.718 4.82909C14.2148 4.82909 11.7513 4.82909 9.24806 4.82909C9.08913 4.82909 8.89046 4.82909 8.73152 4.86892C8.05605 5.02823 7.65871 5.66547 7.73818 6.34254C7.81764 7.01961 8.41365 7.49754 9.24806 7.49754C14.2148 7.49754 19.1815 7.49754 24.1483 7.49754C25.0224 7.49754 25.6582 6.90013 25.6582 6.10357C25.6582 5.34685 25.0224 4.78926 24.1483 4.78926C21.6848 4.82909 19.1815 4.82909 16.718 4.82909Z" fill="white"/>
<path d="M297.478 27.7698C298.471 26.6546 299.425 25.5793 300.378 24.5437C300.458 24.4641 300.617 24.3844 300.736 24.3844C302.842 24.4641 304.908 24.5039 307.014 24.5836C307.093 24.5836 307.173 24.5836 307.252 24.5836C309.597 24.6234 311.941 24.6632 314.285 24.6234C316.749 24.5836 319.252 24.5437 321.715 24.4243C325.133 24.2649 328.55 24.0658 331.927 23.4286C332.682 23.2693 333.477 23.0303 334.232 22.8312C334.391 22.7913 334.549 22.6718 334.708 22.5922C335.066 22.3532 335.066 22.0346 334.708 21.8355C334.232 21.5965 333.715 21.3575 333.199 21.2381C330.656 20.6805 328.073 20.2025 325.53 19.6848C322.59 19.1272 319.689 18.6094 316.788 17.9324C315.755 17.6934 314.722 17.2155 313.808 16.6579C312.457 15.8613 312.418 14.5869 313.57 13.5115C314.643 12.5556 315.954 11.9184 317.265 11.4006C320.047 10.2855 322.987 9.64823 325.967 9.1703C329.146 8.65254 332.324 8.33392 335.503 8.2941C337.251 8.25427 339 8.21444 340.748 8.25427C342.536 8.2941 344.364 8.45341 346.152 8.61272C347.066 8.69237 347.225 9.13048 346.708 9.84737C346.43 10.2855 346.072 10.7236 345.715 11.0422C345.476 11.2812 345.079 11.4405 344.761 11.4405C342.457 11.5201 340.112 11.4803 337.808 11.5998C333.318 11.7989 328.868 12.1574 324.537 13.4717C323.861 13.6708 323.186 13.9894 322.55 14.3081C322.033 14.5869 322.073 14.9851 322.59 15.1444C323.503 15.4232 324.497 15.6622 325.45 15.8613C328.828 16.4986 332.205 17.0562 335.543 17.7731C337.887 18.2908 340.192 19.0077 342.337 20.1627C343.053 20.561 343.768 21.0389 344.403 21.5965C345.397 22.5125 345.278 23.7074 344.284 24.5836C343.37 25.3801 342.258 25.8581 341.066 26.0572C338.642 26.5351 336.179 27.0131 333.715 27.2918C331.212 27.5706 328.669 27.6901 326.126 27.8096C324.139 27.9291 322.152 27.9689 320.166 28.0087C317.424 28.0486 314.683 28.0884 311.941 28.0884C309.438 28.0884 306.934 28.0087 304.431 27.9689C302.365 27.9291 300.299 27.8494 298.233 27.7698C297.875 27.8494 297.716 27.8096 297.478 27.7698Z" fill="white"/>
<path d="M294.14 18.3705L290.008 18.3307C289.849 18.3307 289.69 18.4103 289.571 18.5298C289.332 18.729 288.538 19.6848 288.259 19.9238C288.021 20.1628 287.624 20.2822 287.306 20.3221C284.326 20.3619 279.995 20.3221 276.975 20.3221C276.578 20.3221 276.419 19.8043 276.737 19.5653C281.266 16.4986 289.452 12.5159 296.206 11.799C297.279 11.6795 298.988 9.21017 299.782 7.81621C299.941 7.53741 299.584 7.17896 299.186 7.25862C293.226 8.49327 280.194 11.2414 269.783 20.4017C268.075 21.9152 269.147 23.9065 271.412 24.1057C272.604 24.2252 273.836 24.1853 275.068 24.1853C277.69 24.1853 280.352 24.1853 283.332 24.1853C283.69 24.1853 283.849 24.5836 283.65 24.8624C282.697 26.0572 282.538 26.1369 281.743 27.1326C281.544 27.4114 281.703 27.8096 282.061 27.8096C286.193 27.8495 286.67 27.8096 289.014 25.4996C290.802 23.7472 290.763 23.8667 291.994 23.8269C294.855 23.7472 294.537 23.2693 296.206 20.8398C296.405 20.561 296.206 20.2026 295.888 20.2026C294.339 20.2026 293.266 20.4814 294.418 19.0078C294.617 18.7688 294.498 18.3705 294.14 18.3705Z" fill="white"/>
</svg>
